<?xml version="1.0" encoding="UTF-8"?>
<svg width="101px" height="30px" viewBox="0 0 101 30" version="1.1" xmlns="http://www.w3.org/2000/svg" xmlns:xlink="http://www.w3.org/1999/xlink">
    <!-- Generator: Sketch 50.2 (55047) - http://www.bohemiancoding.com/sketch -->
    <title>Xello Logo</title>
    <desc>Created with Sketch.</desc>
    <defs></defs>
    <g id="Symbols" stroke="none" stroke-width="1" fill="none" fill-rule="evenodd">
        <g id="top-nav" transform="translate(-38.000000, -25.000000)">
            <g id="menu-A---dark">
                <g id="g_branding/logo-grey" transform="translate(38.000000, 25.000000)">
                    <g id="Xello-Logo">
                        <path d="M0,27.1172093 C0,26.4429069 0.24832069,25.8275581 0.744962069,25.270814 L7.32876897,17.3581395 L1.22976207,10.1051163 C0.936513793,9.75279069 0.7171,9.41616279 0.571172413,9.09383721 C0.424896552,8.77220931 0.351410344,8.43383721 0.351410344,8.08220931 C0.351410344,7.32069767 0.592765518,6.72104652 1.07582414,6.28081395 C1.55783793,5.84023255 2.13597587,5.62151162 2.80954138,5.62151162 C3.33543793,5.62151162 3.79725172,5.73872093 4.1915,5.97279069 C4.58609656,6.20720931 4.94342759,6.5305814 5.26627931,6.93976745 L10.490069,13.7979069 L15.800231,6.98267442 C16.1213413,6.57348838 16.4643931,6.24488372 16.8300828,5.99406977 C17.1978621,5.74709302 17.6137034,5.62151162 18.0814379,5.62151162 C18.7842587,5.62151162 19.3777207,5.84023255 19.8590379,6.28081395 C20.3417482,6.72104652 20.5834518,7.27639535 20.5834518,7.95034884 C20.5834518,8.33232558 20.5183241,8.66197674 20.3866759,8.93965116 C20.2553759,9.21906977 20.0721828,9.48906977 19.8374448,9.75279069 L13.5615138,17.269186 L20.0575552,24.9624419 C20.3490621,25.3140698 20.5684759,25.6524419 20.7157966,25.9733721 C20.8610276,26.2970931 20.9345138,26.6326745 20.9345138,26.9846512 C20.9345138,27.7475581 20.6935069,28.3465116 20.2111448,28.7863953 C19.7294793,29.2269767 19.1482069,29.4467442 18.4774276,29.4467442 C17.9508344,29.4467442 17.4897172,29.329186 17.0944241,29.0944186 C16.699131,28.8606977 16.3400587,28.5233721 16.0196448,28.0838372 L10.4019552,20.830814 L4.78426552,28.0838372 C4.46211034,28.4654652 4.11905862,28.7863953 3.75232413,29.050814 C3.38593793,29.3148838 2.95512069,29.4467442 2.45708621,29.4467442 C1.78595862,29.4467442 1.20712413,29.2269767 0.725110344,28.7863953 C0.242051724,28.3465116 0,27.7918605 0,27.1172093" id="Fill-1" fill="#484848"></path>
                        <path d="M41.5304686,15.9068023 C41.4423548,15.0573837 41.2518479,14.2588952 40.9592962,13.5109883 C40.6656997,12.7641278 40.2717997,12.1121511 39.7741134,11.5554069 C39.2764272,10.9990115 38.6847066,10.5661045 37.9965134,10.2577324 C37.3100617,9.95145338 36.5267892,9.79726733 35.6494823,9.79726733 C34.0108444,9.79726733 32.658141,10.3620348 31.5892823,11.488779 C30.5214686,12.6176162 29.8715858,14.0914533 29.6368479,15.9068023 L41.5304686,15.9068023 Z M44.60261,26.589244 C43.5490754,27.5269185 42.3496134,28.2748254 41.0031789,28.830872 C39.657441,29.3865697 38.0769651,29.6659883 36.2631444,29.6659883 C34.5959479,29.6659883 33.0377617,29.372965 31.5892823,28.7872673 C30.1418479,28.2015697 28.8831789,27.3807557 27.8157134,26.3265697 C26.7468548,25.2706394 25.9061169,24.0040116 25.2917582,22.5224999 C24.6777479,21.0441278 24.3695238,19.4091278 24.3695238,17.6220347 L24.3695238,17.533779 C24.3695238,15.8631976 24.6474479,14.2962209 25.2039927,12.8307557 C25.7594927,11.3645929 26.5424169,10.0819185 27.5517203,8.98377897 C28.5610238,7.88494176 29.7538686,7.02087198 31.1285134,6.39052315 C32.5042031,5.76087198 34.0272134,5.44482547 35.6930169,5.44482547 C37.536441,5.44482547 39.1458238,5.78982547 40.5218617,6.4791278 C41.89581,7.16668593 43.0440754,8.06075571 43.96631,9.16029059 C44.8881962,10.2577324 45.5749962,11.4828487 46.0291479,12.8307557 C46.4819066,14.1786627 46.7093307,15.5265697 46.7093307,16.8741278 C46.7093307,17.6370347 46.4592686,18.2527325 45.9629754,18.7201743 C45.464941,19.1904069 44.8801858,19.4244766 44.2076651,19.4244766 L29.6807307,19.4244766 C29.971541,21.3305232 30.7255582,22.7862208 31.9403444,23.7981976 C33.1537376,24.808779 34.6248548,25.314244 36.3516066,25.314244 C37.46191,25.314244 38.4645962,25.1321511 39.3568789,24.7651743 C40.2509031,24.3985464 41.0766651,23.9080813 41.8369513,23.2927325 C42.0406927,23.1465697 42.2385134,23.0293604 42.4293686,22.9404069 C42.620572,22.8531976 42.87551,22.8088952 43.1973169,22.8088952 C43.782072,22.8088952 44.2797582,23.0147092 44.6889823,23.424244 C45.0999479,23.8348254 45.303341,24.3472673 45.303341,24.9622673 C45.303341,25.2852906 45.2385617,25.5856394 45.1072617,25.8636627 C44.9745686,26.1427325 44.8066997,26.3841278 44.60261,26.589244 L44.60261,26.589244 Z" id="Fill-3" fill="#484848"></path>
                        <path d="M52.458599,2.63769767 C52.458599,1.90513953 52.7058748,1.28211628 53.2025162,0.768279069 C53.7002024,0.256534884 54.3305818,0.000139534884 55.0915644,0.000139534884 C55.8515024,0.000139534884 56.4874541,0.256534884 56.9994197,0.768279069 C57.5113852,1.28211628 57.7684128,1.90513953 57.7684128,2.63769767 L57.7684128,26.7214186 C57.7684128,27.4825814 57.5113852,28.1129302 56.9994197,28.6114186 C56.4874541,29.1092093 55.8515024,29.3586279 55.0915644,29.3586279 C54.3594887,29.3586279 53.7360748,29.1092093 53.2251541,28.6114186 C52.71493,28.1129302 52.458599,27.4825814 52.458599,26.7214186 L52.458599,2.63769767 Z" id="Fill-6" fill="#484848"></path>
                        <path d="M65.00966,2.63769767 C65.00966,1.90513953 65.2586772,1.28211628 65.7546221,0.768279069 C66.2533531,0.256534884 66.8816428,0.000139534884 67.6429738,0.000139534884 C68.4039566,0.000139534884 69.0392118,0.256534884 69.5518738,0.768279069 C70.0631428,1.28211628 70.3198221,1.90513953 70.3198221,2.63769767 L70.3198221,26.7214186 C70.3198221,27.4825814 70.0631428,28.1129302 69.5518738,28.6114186 C69.0392118,29.1092093 68.4039566,29.3586279 67.6429738,29.3586279 C66.9105497,29.3586279 66.288529,29.1092093 65.7776082,28.6114186 C65.2649462,28.1129302 65.00966,27.4825814 65.00966,26.7214186 L65.00966,2.63769767 Z" id="Fill-8" fill="#484848"></path>
                        <path d="M88.3566109,25.0066394 C89.4394006,25.0066394 90.4128316,24.8091976 91.2765557,24.4136161 C92.139235,24.0180347 92.8775799,23.490593 93.4915902,22.8309418 C94.1069937,22.170593 94.5750764,21.3951278 94.8972316,20.5014069 C95.219735,19.6076859 95.3792453,18.6619883 95.3792453,17.6653604 L95.3792453,17.5774533 C95.3792453,16.5522209 95.2040625,15.5845464 94.8533488,14.6765232 C94.5015902,13.7688487 94.0119143,12.9773371 93.3822316,12.3033837 C92.7528971,11.6294301 92.0075868,11.093965 91.1438625,10.6983836 C90.2815316,10.3034999 89.3234247,10.1046627 88.2698902,10.1046627 C87.216704,10.1046627 86.2575522,10.3034999 85.394873,10.6983836 C84.5321937,11.093965 83.7941971,11.621058 83.1798384,12.2807092 C82.5633902,12.9400115 82.0956557,13.7172208 81.7745453,14.610244 C81.4516937,15.5050116 81.2928799,16.4636162 81.2928799,17.4891976 L81.2928799,17.5774533 C81.2928799,18.5744301 81.4670178,19.5267557 81.8187764,20.4344301 C82.1694902,21.3434999 82.6581212,22.1350116 83.2885006,22.8086161 C83.9185316,23.4825697 84.6631453,24.0180347 85.5272178,24.4136161 C86.3898971,24.8091976 87.3337247,25.0066394 88.3566109,25.0066394 M88.2698902,29.666058 C86.5142316,29.666058 84.8832557,29.3514069 83.3759178,28.7214069 C81.8692764,28.0917557 80.5667247,27.2350116 79.4707006,26.149779 C78.372935,25.0659418 77.516873,23.790593 76.902166,22.3258254 C76.288504,20.8603604 75.9820212,19.3076859 75.9820212,17.6653604 L75.9820212,17.5774533 C75.9820212,15.906872 76.2958178,14.3398952 76.9261971,12.8740813 C77.5537902,11.408965 78.4175143,10.1266394 79.5149316,9.02780222 C80.6116522,7.928965 81.9128109,7.0579185 83.4208453,6.41222083 C84.9264419,5.7679185 86.5730902,5.44489524 88.3566109,5.44489524 C90.141873,5.44489524 91.7874764,5.76094176 93.2955109,6.39059292 C94.8014557,7.02094176 96.1043557,7.88466269 97.2010764,8.98384873 C98.2991902,10.0816394 99.1535109,11.3576859 99.7696109,12.8078023 C100.381532,14.2582673 100.690104,15.8193138 100.690104,17.4891976 L100.690104,17.5774533 C100.690104,19.2187325 100.375263,20.7721045 99.7466247,22.2372208 C99.1165937,23.7026859 98.2542625,24.9843138 97.1568453,26.0831511 C96.060473,27.1833837 94.7506074,28.0551278 93.2289902,28.6994301 C91.7080696,29.3430347 90.054804,29.666058 88.2698902,29.666058" id="Fill-10" fill="#484848"></path>
                        <path d="M83.5935207,17.5090814 L83.5935207,17.5683838 C83.5935207,18.2388488 83.7129793,18.8810581 83.9501552,19.4901279 C84.1859379,20.1023372 84.5143621,20.6364069 84.9382138,21.0888488 C85.3624138,21.5433838 85.863931,21.902686 86.4448552,22.1691977 C87.0261276,22.4357093 87.6610344,22.5686162 88.3506207,22.5686162 C89.0792138,22.5686162 89.7332759,22.4357093 90.3142,22.1691977 C90.8954724,21.902686 91.3935069,21.5479186 91.8058656,21.1038488 C92.219269,20.6611745 92.5351552,20.1375698 92.7528276,19.5354767 C92.9684103,18.9333838 93.0763759,18.2978023 93.0763759,17.6273372 L93.0763759,17.5136162 L83.5935207,17.5090814 Z" id="Fill-13" fill="#78BC42"></path>
                    </g>
                </g>
            </g>
        </g>
    </g>
</svg>